<?xml version="1.0" encoding="utf-8"?>
<svg width="64px" height="64px" viewBox="0 0 64 64" version="1.1" xmlns:xlink="http://www.w3.org/1999/xlink" xmlns="http://www.w3.org/2000/svg">
  <defs>
    <path d="M0 0L64 0L64 64L0 64L0 0Z" id="path_1" />
    <clipPath id="mask_1">
      <use xlink:href="#path_1" />
    </clipPath>
  </defs>
  <g id="svg-2">
    <path d="M0 0L64 0L64 64L0 64L0 0Z" id="Background" fill="none" fill-rule="evenodd" stroke="none" />
    <g clip-path="url(#mask_1)">
      <path d="M42 40L48 40L45 35L42 40Z" id="Polygon" fill="#526273" fill-rule="evenodd" stroke="none" />
      <path d="M11 49C11 46.7909 12.7909 45 15 45C17.2091 45 19 46.7909 19 49C19 51.2091 17.2091 53 15 53C12.7909 53 11 51.2091 11 49Z" id="Circle" fill="#759ACC" fill-rule="evenodd" stroke="none" />
      <path d="M21 62L21 58L21 58C24.314 58 27 55.314 27 52L27 43.93C27 42.864 26.136 42 25.07 42L24.93 42C23.864 42 23 42.864 23 43.93L23 51C23 52.105 22.105 53 21 53L9 53C7.895 53 7 52.105 7 51L7 43.93C7 42.864 6.136 42 5.07 42L4.93 42C3.864 42 3 42.864 3 43.93L3 52C3 55.314 5.686 58 9 58L9 58L9 62" id="Shape" fill="#759ACC" fill-rule="evenodd" stroke="none" />
      <path d="M7 34C7 29.5817 10.5817 26 15 26C19.4183 26 23 29.5817 23 34C23 38.4183 19.4183 42 15 42C10.5817 42 7 38.4183 7 34Z" id="Circle" fill="#FFE38F" fill-rule="evenodd" stroke="none" />
      <path d="M32 12C32 9.79086 33.7909 8 36 8C38.2091 8 40 9.79086 40 12C40 14.2091 38.2091 16 36 16C33.7909 16 32 14.2091 32 12Z" id="Circle" fill="#759ACC" fill-rule="evenodd" stroke="none" />
      <path d="M29 23L29 26L43 26L43 23C43 19.134 39.866 16 36 16L36 16C32.134 16 29 19.134 29 23L29 23Z" id="Shape" fill="#759ACC" fill-rule="evenodd" stroke="none" />
      <path d="M54 3C50.134 3 47 3.895 47 5L47 25C47 26.105 50.134 27 54 27C57.866 27 61 26.105 61 25L61 5C61 3.895 57.866 3 54 3L54 3Z" id="Shape" fill="#FFE38F" fill-rule="evenodd" stroke="none" />
      <path d="M28 26C28 26.553 28.447 27 29 27L43 27C43.553 27 44 26.553 44 26L44 23C44 19.768 42.07 16.984 39.305 15.723C40.336 14.806 41 13.485 41 12C41 9.243 38.757 7 36 7C33.243 7 31 9.243 31 12C31 13.485 31.664 14.806 32.695 15.723C29.93 16.984 28 19.768 28 23L28 26L28 26ZM33 12C33 10.346 34.346 9 36 9C37.654 9 39 10.346 39 12C39 13.654 37.654 15 36 15C34.346 15 33 13.654 33 12L33 12ZM30 23C30 19.691 32.691 17 36 17C39.309 17 42 19.691 42 23L42 25L30 25L30 23L30 23Z" id="Shape" fill="#000000" fill-rule="evenodd" stroke="none" />
      <path d="M54 2C53.182 2 46 2.084 46 5L46 25C46 27.916 53.182 28 54 28C54.818 28 62 27.916 62 25L62 5C62 2.084 54.818 2 54 2L54 2ZM54 4C57.137 4 59.155 4.584 59.829 5C59.155 5.416 57.137 6 54 6C50.863 6 48.845 5.416 48.171 5C48.845 4.584 50.863 4 54 4L54 4ZM60 8.859C59.618 9.266 57.521 10 54 10C50.479 10 48.382 9.266 48 8.859L48 7.108C50.19 7.958 53.463 8 54 8C54.537 8 57.81 7.958 60 7.108L60 8.859L60 8.859ZM60 12.859C59.618 13.266 57.521 14 54 14C50.479 14 48.382 13.266 48 12.859L48 11.108C50.19 11.958 53.463 12 54 12C54.537 12 57.81 11.958 60 11.108L60 12.859L60 12.859ZM60 16.859C59.618 17.266 57.521 18 54 18C50.479 18 48.382 17.266 48 16.859L48 15.108C50.19 15.958 53.463 16 54 16C54.537 16 57.81 15.958 60 15.108L60 16.859L60 16.859ZM60 20.859C59.618 21.266 57.521 22 54 22C50.479 22 48.382 21.266 48 20.859L48 19.108C50.19 19.958 53.463 20 54 20C54.537 20 57.81 19.958 60 19.108L60 20.859L60 20.859ZM54 26C50.522 26 48.42 25.282 48 24.872L48 23.108C50.19 23.958 53.463 24 54 24C54.537 24 57.81 23.958 60 23.108L60 24.872C59.58 25.282 57.478 26 54 26L54 26Z" id="Shape" fill="#000000" fill-rule="evenodd" stroke="none" />
      <path d="M8 58.929L8 62L10 62L10 58C10 57.447 9.553 57 9 57C6.243 57 4 54.757 4 52L4 43.93C4 43.417 4.417 43 4.93 43L5.07 43C5.583 43 6 43.417 6 43.93L6 51C6 52.654 7.346 54 9 54L21 54C22.654 54 24 52.654 24 51L24 43.93C24 43.417 24.417 43 24.93 43L25.071 43C25.584 43 26.001 43.417 26.001 43.93L26.001 52C26.001 54.757 23.758 57 21.001 57C20.448 57 20.001 57.447 20.001 58L20.001 62L22.001 62L22.001 58.929C25.389 58.443 28.001 55.521 28.001 52L28.001 43.93C28.001 42.315 26.687 41 25.071 41L24.93 41C23.314 41 22 42.314 22 43.93L22 51C22 51.552 21.552 52 21 52L18.974 52C19.609 51.162 20 50.13 20 49C20 46.243 17.757 44 15 44C12.243 44 10 46.243 10 49C10 50.13 10.391 51.162 11.026 52L9 52C8.448 52 8 51.552 8 51L8 43.93C8 42.314 6.686 41 5.07 41L4.93 41C3.314 41 2 42.314 2 43.93L2 52C2 55.521 4.612 58.442 8 58.929L8 58.929ZM12 49C12 47.346 13.346 46 15 46C16.654 46 18 47.346 18 49C18 50.654 16.654 52 15 52C13.346 52 12 50.654 12 49L12 49Z" id="Shape" fill="#000000" fill-rule="evenodd" stroke="none" />
      <path d="M6 34C6 38.963 10.037 43 15 43C19.963 43 24 38.963 24 34C24 29.037 19.963 25 15 25C10.037 25 6 29.037 6 34L6 34ZM22 34C22 37.859 18.859 41 15 41C11.141 41 8 37.859 8 34C8 30.141 11.141 27 15 27C18.859 27 22 30.141 22 34L22 34Z" id="Shape" fill="#000000" fill-rule="evenodd" stroke="none" />
      <path d="M46 59L46 41L48 41C48.36 41 48.692 40.807 48.87 40.493C49.048 40.179 49.043 39.794 48.857 39.485L45.857 34.485C45.496 33.883 44.503 33.883 44.142 34.485L41.142 39.485C40.956 39.794 40.952 40.178 41.129 40.493C41.308 40.807 41.64 41 42 41L44 41L44 58L31 58L31 60L45 60C45.553 60 46 59.553 46 59L46 59ZM45 36.943L46.233 39L43.766 39L45 36.943L45 36.943Z" id="Shape" fill="#000000" fill-rule="evenodd" stroke="none" />
      <path d="M35 2L37 2L37 5L35 5L35 2Z" id="Rectangle" fill="#000000" fill-rule="evenodd" stroke="none" />
      <path d="M38.1722 5.29357L40.2935 3.17221L41.7078 4.5864L39.5865 6.70776L38.1722 5.29357Z" id="Rectangle" fill="#000000" fill-rule="evenodd" stroke="none" />
      <path d="M30.0502 4.58648L31.4644 3.17224L33.5858 5.29352L32.1716 6.70776L30.0502 4.58648Z" id="Rectangle" fill="#000000" fill-rule="evenodd" stroke="none" />
    </g>
  </g>
</svg>