<?xml version="1.0" encoding="utf-8"?>
<svg width="50px" height="50px" viewBox="0 0 50 50" version="1.1" xmlns:xlink="http://www.w3.org/1999/xlink" xmlns="http://www.w3.org/2000/svg">
  <defs>
    <path d="M0 0L50 0L50 50L0 50L0 0Z" id="path_1" />
    <clipPath id="mask_1">
      <use xlink:href="#path_1" />
    </clipPath>
  </defs>
  <g id="svg">
    <path d="M0 0L50 0L50 50L0 50L0 0Z" id="Background" fill="none" fill-rule="evenodd" stroke="none" />
    <g clip-path="url(#mask_1)">
      <path d="M25 3C18.9366 3 14 7.93659 14 14C14 20.0634 18.9366 25 25 25C31.0634 25 36 20.0634 36 14C36 7.93659 31.0634 3 25 3L25 3ZM25 5C29.9826 5 34 9.01741 34 14C34 18.9826 29.9826 23 25 23C20.0174 23 16 18.9826 16 14C16 9.01741 20.0174 5 25 5L25 5ZM13.4649 25C10.6279 25 9.33967 25.6868 7.91995 26.248C7.9193 26.248 7.91864 26.248 7.91799 26.248C5.21119 27.3207 0.566431 29.5547 0.566431 29.5547C0.243976 29.7095 0.028635 30.0246 0.00154138 30.3813C-0.0255523 30.738 0.139718 31.082 0.435085 31.2838C0.730452 31.4856 1.11103 31.5144 1.43343 31.3595C1.43362 31.3594 6.10674 29.1171 8.65432 28.1074C10.2146 27.4906 10.9198 27 13.4649 27C19.0815 27 18.9296 29.5215 21.2305 30.9023C21.2311 30.9023 21.2318 30.9023 21.2324 30.9023C22.0137 31.3709 23.312 31.7367 24.6739 32.0918C24.8523 32.229 25.0718 32.3019 25.2969 32.2988C26.9359 32.6949 28.6719 33 30 33C31.1688 33 31.9945 33.2241 32.4336 33.5C32.8728 33.7759 33 34.0035 33 34.5C33 35.0821 32.8661 35.2809 32.4278 35.541C31.9895 35.8012 31.1506 36 30 36L24.1992 36C21.7505 36 18.2754 35.0391 18.2754 35.0391C17.9281 34.9278 17.5478 35.0144 17.2829 35.265C17.018 35.5157 16.9105 35.8906 17.0024 36.2436C17.0944 36.5965 17.3711 36.8714 17.7246 36.9609C17.7246 36.9609 21.256 38 24.1992 38L30 38C31.3535 38 32.5135 37.8171 33.4492 37.2617C33.6838 37.1225 33.8241 36.8769 34.0137 36.6816C34.1545 36.6569 34.2884 36.6023 34.4063 36.5215L43.3985 30.4727L43.4004 30.4727C44.9598 29.5476 46.0353 29.2847 46.6758 29.2969C47.3166 29.3091 47.5591 29.512 47.7637 29.7793C48.0602 30.1672 48.0835 30.3729 47.8906 30.8301C47.6978 31.2872 47.1466 31.9469 46.1817 32.6309C44.981 33.4828 31.7678 42.2596 30.2149 43.1582C29.0657 43.8242 28.1393 44.5332 27.0801 44.834C26.0213 45.1346 24.7688 45.1312 22.7207 44.1348L22.7188 44.1348C21.3509 43.4684 15.5727 40.4507 13.6973 39.4824C12.661 38.9468 11.7872 38.6509 10.8946 38.7012C10.0019 38.7515 9.24586 39.1409 8.4512 39.6484C8.44858 39.6504 8.44598 39.6523 8.44338 39.6543L5.74612 41.4141C5.44218 41.6071 5.26547 41.9486 5.28346 42.3082C5.30145 42.6679 5.51135 42.99 5.83304 43.1518C6.15472 43.3135 6.53852 43.2899 6.83791 43.0898L9.53713 41.3301C10.2261 40.8911 10.6337 40.7203 11.0078 40.6992C11.3844 40.678 11.8867 40.7984 12.7793 41.2598C14.6376 42.2193 20.3404 45.1993 21.8438 45.9316C24.2054 47.0812 26.1046 47.1901 27.627 46.7578C29.1493 46.3256 30.235 45.4577 31.2168 44.8887C33.2999 43.6833 45.8326 35.3298 47.3379 34.2617L47.3379 34.2637C48.485 33.4506 49.314 32.5993 49.7324 31.6074C50.1509 30.6156 50.0161 29.4336 49.3516 28.5645C48.8291 27.8818 47.8959 27.3194 46.7129 27.2969C45.8763 27.2809 44.8755 27.5972 43.7735 28.0918C43.7318 27.8918 43.829 27.671 43.7403 27.4785C43.4003 26.741 42.6426 26.2214 41.791 26.0527C41.7904 26.0527 41.7897 26.0527 41.7891 26.0527C40.6719 25.8319 39.4068 26.176 38.1543 26.752C38.0651 26.4804 37.9971 26.1958 37.8164 25.9805C37.2801 25.3413 36.5088 25.1142 35.791 25.0586C34.3556 24.9473 32.8625 25.416 31.7832 26.0586C30.2758 26.9556 25.8011 29.7906 25.1992 30.1719C23.9132 29.8186 22.6057 29.393 22.2598 29.1855L22.2598 29.1875C21.3447 28.6382 19.7702 25 13.4649 25L13.4649 25ZM35.6367 27.0527C36.0364 27.0837 36.2275 27.1993 36.2832 27.2656C36.3178 27.3069 36.2939 27.5656 36.2949 27.75L31.3867 31.1348C30.943 31.0701 30.5041 31 30 31C29.5528 31 28.7559 30.8035 28.1094 30.7109C29.8407 29.6187 31.799 28.3739 32.8047 27.7754C33.4755 27.376 34.8374 26.9908 35.6367 27.0527L35.6367 27.0527ZM40.7461 27.9981C41.0065 27.9737 41.231 27.9798 41.4023 28.0137C41.8178 28.096 41.8578 28.1732 41.9238 28.3164C41.9694 28.4153 41.939 28.7556 41.916 29.0606L34.8223 33.8301C34.6517 33.095 34.2769 32.4437 33.6699 31.9902L37.8379 29.1172C37.8566 29.1042 37.8748 29.0905 37.8926 29.0762C38.8598 28.4148 39.9648 28.0712 40.7461 27.9981L40.7461 27.9981Z" id="Shape" fill="#544A00" fill-rule="evenodd" stroke="none" />
    </g>
  </g>
</svg>