<?xml version="1.0" encoding="UTF-8"?>
<svg data-bbox="0 12.825 480.058 454.41" height="240" width="240" viewBox="0 0 480.059 480.059" xmlns="http://www.w3.org/2000/svg" data-type="ugc">
    <g>
        <path d="M472.018 235.019c-8.42-114.4-100-205.76-214.7-214.15-9.31-.68-17.26 6.65-17.26 15.96v8.41c-73.53 0-138.1 38.34-174.82 96.11l-7.11-4.51c-7.87-4.99-18.31-2.22-22.71 6-46.18 86.19-33.9 195.26 36.53 269.28 6.42 6.75 17.22 6.64 23.48-.26l5.64-6.22c36.73 33.31 85.49 53.6 138.99 53.6 114.057 0 207-92.433 207-207h8.95c9.34 0 16.69-7.93 16.01-17.22z" fill="#cbe3fa"/>
        <path d="M255.399 146.331c17.554 2.521 18.762 27.616 1.45 31.462-51.53 11.448-86.885 58.645-83.587 111.194 1.115 17.762-23.066 24.022-30.49 7.848-6.249-13.612-9.714-28.728-9.714-44.596 0-65.051 57.658-115.196 122.341-105.908z" fill="#eef7ff"/>
        <path d="M240.058 45.239v100c-38 0-71.38 19.82-90.36 49.68-.1 0 1.211.775-84.46-53.57 36.72-57.77 101.29-96.11 174.82-96.11z" fill="#ffe773"/>
        <path d="M240.058 45.239v21.528c0 3.966-2.911 7.305-6.83 7.909-54.366 8.387-101.745 37.934-133.463 79.948-2.496 3.306-7.134 4.104-10.631 1.885l-23.895-15.161c36.719-57.769 101.289-96.109 174.819-96.109z" fill="#fff0a6"/>
        <path d="M472.018 235.019c.68 9.29-6.67 17.22-16.01 17.22h-108.95c0-59.09-47.91-107-107-107V36.829c0-9.31 7.95-16.64 17.26-15.96 114.7 8.39 206.28 99.75 214.7 214.15z" fill="#befa91"/>
        <path d="M290.639 25.737c9.378 2.074 7.299 15.955-2.277 15.211a341.33 341.33 0 0 0-1.045-.079c-9.31-.68-17.26 6.65-17.26 15.96v82.878c0 4.878-4.465 8.488-9.251 7.546a107.332 107.332 0 0 0-20.749-2.014V36.829c0-9.31 7.95-16.64 17.26-15.96a232.803 232.803 0 0 1 33.322 4.868z" fill="#daffbf"/>
        <path d="M347.058 252.239h100c0 68.87-33.64 129.89-85.38 167.51-57.891-79.737-58.75-80.828-58.75-80.93 26.74-19.44 44.13-50.98 44.13-86.58z" fill="#80aaff"/>
        <path d="M361.678 419.749c-78.886 57.397-187.836 51.888-260.61-14.11l67.14-74.115c37.704 34.21 94.053 36.903 134.72 7.296 0 .1-.736-1.005 58.75 80.929z" fill="#fff0a6"/>
        <path d="M216.212 457.888c-41.744-4.818-82.147-22.324-115.144-52.249l67.14-74.115a107.226 107.226 0 0 0 13.174 10.202c3.411 2.241 4.65 6.668 2.797 10.305-25.809 50.666 3.838 77.034 36.121 90.538 8.515 3.561 5.082 16.377-4.088 15.319z" fill="#fff8d6"/>
        <path d="m168.208 331.524-72.78 80.336c-6.26 6.9-17.06 7.01-23.48.26-70.43-74.02-82.71-183.09-36.53-269.28 4.4-8.22 14.841-10.991 22.71-6 92.933 58.938 91.468 58.08 91.57 58.08-27.709 43.561-20.341 101.388 18.51 136.604z" fill="#ff6d7a"/>
        <path d="M83.091 402.888c5.166 7.232-4.778 15.914-11.143 9.231-70.43-74.02-82.71-183.09-36.53-269.28 4.4-8.22 14.84-10.99 22.71-6l4.714 2.99c6.353 4.029 8.265 12.267 4.654 18.866-40.608 74.221-36.877 170.738 15.595 244.193z" fill="#ff8c95"/>
        <path d="M479.993 234.437c-8.695-118.24-103.37-212.861-222.091-221.547-13.335-.981-25.844 9.183-25.844 24.511-55.229 2-106.661 24.665-145.565 64.363-4.952 5.053-1.334 13.6 5.713 13.6a7.979 7.979 0 0 0 5.714-2.4c35.869-36.602 83.244-57.56 134.137-59.552v46.925a8 8 0 0 0 16 0V36.83c0-4.666 3.985-8.325 8.676-7.983 110.105 8.057 199.227 96.945 207.302 206.764a8.03 8.03 0 0 1-8.023 8.629H347.058a8 8 0 0 0-8 8c0 54.589-44.411 99-99 99s-99-44.411-99-99 44.411-99 99-99c38.236 0 73.44 22.38 89.685 57.016a8 8 0 0 0 14.487-6.794c-18.868-40.228-59.758-66.222-104.171-66.222-37.909 0-71.589 18.442-92.55 46.822l-85.097-53.978c-11.782-7.474-27.45-3.327-34.042 8.975-48.166 89.906-34.628 202.466 37.779 278.577 9.116 9.583 25.205 10.626 35.578-.819 75.983 63.932 185.264 67.055 264.66 9.412 45.26-32.86 76.216-82.48 85.611-137.646a8 8 0 0 0-15.773-2.686c-8.546 50.186-35.261 93.154-72.75 122.705l-31.787-43.778a8 8 0 0 0-12.947 9.401l31.781 43.77c-71.765 47.728-169.054 44.661-238.045-13.04l37.132-40.979a7.999 7.999 0 0 0-.557-11.3 8 8 0 0 0-11.3.557l-48.255 53.254a8.003 8.003 0 0 1-11.755.121c-66.793-70.21-80.966-174.693-35.268-259.992 2.194-4.096 7.398-5.539 11.368-3.021l85.072 53.962c-8.833 16.273-13.854 34.903-13.854 54.683 0 63.411 51.589 115 115 115 60.721 0 110.595-47.307 114.717-107h101.237c13.956-.001 25.003-11.875 23.979-25.803z"/>
        <path d="M283.058 227.239a8 8 0 0 0-8-8h-71a8 8 0 0 0 0 16h71a8 8 0 0 0 8-8z"/>
        <path d="M233.703 286.239h65.355a8 8 0 0 0 0-16h-65.355a8 8 0 0 0 0 16z"/>
        <path d="M196.929 270.239h-15.871a8 8 0 0 0 0 16h15.871a8 8 0 0 0 0-16z"/>
        <path d="M384.058 116.239h-52a8 8 0 0 0 0 16h52a8 8 0 0 0 0-16z"/>
        <path d="M354.058 174.239a8 8 0 0 0 8 8h32a8 8 0 0 0 0-16h-32a8 8 0 0 0-8 8z"/>
        <path d="M105.058 237.239a8 8 0 0 0-8-8h-46a8 8 0 0 0 0 16h46a8 8 0 0 0 8-8z"/>
        <path d="M51.058 279.239a8 8 0 0 0 0 16h29a8 8 0 0 0 0-16h-29z"/>
    </g>
</svg>
