<svg fill="#000000" xmlns="http://www.w3.org/2000/svg"  viewBox="0 0 50 50" width="250px" height="250px"><path d="M 25 2 C 14.518545 2 6 10.518545 6 21 C 6 25.737466 7.746988 30.068342 10.619141 33.394531 L 8.2734375 42 L 41.726562 42 L 39.380859 33.394531 C 42.253012 30.068342 44 25.737466 44 21 C 44 10.518545 35.481455 2 25 2 z M 25 4 C 34.400545 4 42 11.599455 42 21 C 42 25.205355 40.467536 29.035119 37.939453 32 L 12.060547 32 C 9.5324637 29.035119 8 25.205355 8 21 C 8 11.599455 15.599455 4 25 4 z M 25.984375 7.9863281 A 1.0001 1.0001 0 0 0 25 9 L 25 10 L 24 10 A 1.0001 1.0001 0 1 0 24 12 L 25 12 L 25 13 A 1.0001 1.0001 0 1 0 27 13 L 27 12 L 28 12 A 1.0001 1.0001 0 1 0 28 10 L 27 10 L 27 9 A 1.0001 1.0001 0 0 0 25.984375 7.9863281 z M 15.984375 16.986328 A 1.0001 1.0001 0 0 0 15 18 L 15 19 L 14 19 A 1.0001 1.0001 0 1 0 14 21 L 15 21 L 15 22 A 1.0001 1.0001 0 1 0 17 22 L 17 21 L 18 21 A 1.0001 1.0001 0 1 0 18 19 L 17 19 L 17 18 A 1.0001 1.0001 0 0 0 15.984375 16.986328 z M 33.984375 20.986328 A 1.0001 1.0001 0 0 0 33 22 L 33 23 L 32 23 A 1.0001 1.0001 0 1 0 32 25 L 33 25 L 33 26 A 1.0001 1.0001 0 1 0 35 26 L 35 25 L 36 25 A 1.0001 1.0001 0 1 0 36 23 L 35 23 L 35 22 A 1.0001 1.0001 0 0 0 33.984375 20.986328 z M 7 44 C 5.895 44 5 44.895 5 46 C 5 47.105 5.895 48 7 48 L 43 48 C 44.105 48 45 47.105 45 46 C 45 44.895 44.105 44 43 44 L 7 44 z"/></svg>