<?xml version="1.0" encoding="UTF-8"?>
<svg data-bbox="2.941 11 122.117 106.11" height="512" width="512" viewBox="0 0 128 128" xmlns="http://www.w3.org/2000/svg" data-type="color">
    <g>
        <path d="M57.05 111.28 8.98 64.82c-3-2.9-3.88-7.35-2.22-11.18l14.62-33.63c1.59-3.65 5.19-6.01 9.17-6.01h66.89c3.98 0 7.58 2.36 9.17 6.01l14.62 33.63c1.66 3.82.78 8.28-2.22 11.18l-48.06 46.46a9.993 9.993 0 0 1-13.9 0z" fill="#ffffff" data-color="1"/>
        <path d="M102 58.5c0-5.32-8.67-8.7-25.77-10.04a2.982 2.982 0 0 0-3.22 2.76 2.994 2.994 0 0 0 2.76 3.22c11.46.9 17.54 2.84 19.63 4.07-2.85 1.7-12.53 4.18-28.4 4.46V37h22c1.66 0 3-1.34 3-3s-1.34-3-3-3H39c-1.66 0-3 1.34-3 3s1.34 3 3 3h22v25.97c-15.86-.28-25.55-2.76-28.4-4.46 2.09-1.22 8.17-3.17 19.63-4.07a3 3 0 0 0 2.76-3.22 3 3 0 0 0-3.22-2.76C34.67 49.8 26 53.18 26 58.5c0 8.88 24.98 10.27 35 10.47V94c0 1.66 1.34 3 3 3s3-1.34 3-3V68.97c10.02-.2 35-1.59 35-10.47z" fill="#71c2ff" data-color="2"/>
        <path d="M64 117.11c-3.25 0-6.5-1.22-9.04-3.67L6.9 66.98c-3.88-3.75-5.04-9.59-2.89-14.53l14.62-33.63A13.01 13.01 0 0 1 30.56 11h66.89c5.18 0 9.86 3.07 11.92 7.82l14.62 33.63c2.15 4.94.99 10.78-2.89 14.53l-48.06 46.46a12.977 12.977 0 0 1-9.04 3.67zM30.56 17a6.99 6.99 0 0 0-6.42 4.21L9.52 54.84a7.03 7.03 0 0 0 1.55 7.82l48.06 46.46c2.73 2.64 7 2.64 9.73 0l48.06-46.46a7.017 7.017 0 0 0 1.55-7.82l-14.62-33.63A6.99 6.99 0 0 0 97.43 17H30.56z" fill="#444b54" data-color="3"/>
    </g>
</svg>
