<svg fill="#000000" xmlns="http://www.w3.org/2000/svg"  viewBox="0 0 480 480" width="60px" height="60px"><path d="M 332.0957 0 C 326.1717 2.3684758e-15 322.38697 6.1732969 324.91797 11.529297 C 327.91397 17.868297 329.5 24.842 329.5 32 L 329.5 90.025391 C 329.5 92.976391 331.12847 95.682219 333.73047 97.074219 C 344.20347 102.67822 352.82555 111.29944 358.43555 121.77344 C 359.82855 124.37244 362.53147 126 365.48047 126 L 407.5 126 C 411.918 126 415.5 122.418 415.5 118 L 415.5 79.007812 C 415.5 74.605812 411.94106 71.001672 407.53906 71.013672 C 373.47406 71.105672 346.00083 42.333328 347.54883 8.3613281 C 347.75583 3.8063281 344.1225 1.0566548e-16 339.5625 0 L 332.0957 0 z M 371.60938 0 C 367.45337 0 363.98981 3.1842188 363.63281 7.3242188 C 361.43881 32.731219 381.89833 55.191391 407.61133 55.025391 C 411.98533 54.996391 415.5 51.393531 415.5 47.019531 L 415.5 24 C 415.5 10.745 404.755 0 391.5 0 L 371.60938 0 z M 117.71094 0.2109375 C 100.03794 0.2109375 85.710938 14.537938 85.710938 32.210938 L 85.710938 118.21094 C 85.710938 122.62894 89.292937 126.21094 93.710938 126.21094 L 131.61523 126.21094 C 136.03123 126.21094 139.61223 122.63084 139.61523 118.21484 C 139.61523 118.33684 139.67855 18.920844 139.68555 8.2148438 C 139.68855 3.7948438 136.10555 0.2109375 131.68555 0.2109375 L 117.71094 0.2109375 z M 163.68555 0.2109375 C 159.26955 0.2109375 155.68855 3.7890781 155.68555 8.2050781 C 155.68555 8.0800781 155.61523 118.10408 155.61523 118.20508 C 155.61223 122.62508 159.19523 126.21094 163.61523 126.21094 L 187.61523 126.21094 C 192.03123 126.21094 195.61223 122.63084 195.61523 118.21484 C 195.61523 118.33684 195.67855 18.920844 195.68555 8.2148438 C 195.68855 3.7948438 192.10555 0.2109375 187.68555 0.2109375 L 163.68555 0.2109375 z M 219.68555 0.2109375 C 215.26955 0.2109375 211.68855 3.7890781 211.68555 8.2050781 C 211.68555 8.0800781 211.61523 118.10408 211.61523 118.20508 C 211.61223 122.62508 215.19523 126.21094 219.61523 126.21094 L 305.71094 126.21094 C 310.12894 126.21094 313.71094 122.62894 313.71094 118.21094 L 313.71094 32.210938 C 313.71094 14.537938 299.38394 0.2109375 281.71094 0.2109375 L 219.68555 0.2109375 z M 49.5 87 C 27.409 87 9.5 104.909 9.5 127 L 9.5 440 C 9.5 462.091 27.409 480 49.5 480 L 430.5 480 C 452.591 480 470.5 462.091 470.5 440 L 470.5 182 C 470.5 164.16 458.70423 148.12177 440.49023 143.25977 C 434.08123 141.17577 442.116 142 77.5 142 C 73.071 142 69.5 138.411 69.5 134 L 69.5 95 C 69.5 90.582 65.918 87 61.5 87 L 49.5 87 z M 439.56445 88.216797 C 435.28968 88.049768 431.5 91.446344 431.5 95.964844 L 431.5 118.85352 C 431.5 122.74052 434.38437 125.99825 438.23438 126.53125 C 445.58137 127.54825 452.58963 130.00775 458.89062 133.71875 C 464.02663 136.74275 470.5 132.958 470.5 127 C 470.5 108.719 458.18602 93.276672 441.41602 88.513672 C 440.79514 88.337297 440.17513 88.240658 439.56445 88.216797 z M 331.67969 115.04492 C 330.58492 114.95267 329.5 115.79783 329.5 117.04883 L 329.5 124 C 329.5 125.105 330.395 126 331.5 126 L 338.45117 126 C 340.11917 126 341.06525 124.07072 340.03125 122.76172 C 337.89225 120.05472 335.44528 117.60675 332.73828 115.46875 C 332.41103 115.21025 332.04461 115.07567 331.67969 115.04492 z M 375.5 274 C 397.56 274 415.5 291.94 415.5 314 C 415.5 336.06 397.56 354 375.5 354 C 353.44 354 335.5 336.06 335.5 314 C 335.5 291.94 353.44 274 375.5 274 z M 375.5 290 A 24 24 0 0 0 375.5 338 A 24 24 0 0 0 375.5 290 z"/></svg>